<svg xmlns="http://www.w3.org/2000/svg" viewBox="0 0 433.22 126.55"><defs><style>.cls-1{fill:#f79a0f;}.cls-2{fill:#175079;}.cls-3{fill:#a21c13;}</style></defs><title>Asset 1</title><g id="Layer_2" data-name="Layer 2"><g id="Layer_1-2" data-name="Layer 1"><polygon class="cls-1" points="128.17 23.05 119.18 8.18 64.15 77.74 8.98 8.05 0 22.93 53.24 90.38 53.21 90.41 64.12 103.06 64.15 103.02 64.17 103.06 75.08 90.41 75.06 90.38 128.17 23.05 128.17 23.05"/><path class="cls-1" d="M74.84,10.81A10.81,10.81,0,1,0,64,21.63,10.81,10.81,0,0,0,74.84,10.81Z"/><polygon class="cls-2" points="107.82 112.32 36.36 112.32 24.92 126.44 140.97 126.33 93.42 67.1 82.81 80.56 107.82 112.32 107.82 112.32"/><polygon class="cls-2" points="75.06 44.22 75.08 44.19 64.17 31.55 64.15 31.58 64.12 31.55 53.21 44.19 53.24 44.22 0 111.68 8.98 126.55 64.15 56.86 72.39 67.33 82.92 54.02 75.06 44.22 75.06 44.22"/><polygon class="cls-3" points="107.82 112.32 36.36 112.32 24.92 126.44 140.97 126.33 93.42 67.1 82.81 80.56 107.82 112.32 107.82 112.32"/><polygon class="cls-3" points="75.06 44.22 75.08 44.19 64.17 31.55 64.15 31.58 64.12 31.55 53.21 44.19 53.24 44.22 0 111.68 8.98 126.55 64.15 56.86 72.39 67.33 82.92 54.02 75.06 44.22 75.06 44.22"/><polygon class="cls-1" points="190.79 49.4 199.7 49.4 173.4 95.21 171.31 95.21 144.82 49.4 153.75 49.4 172.26 81.41 190.79 49.4 190.79 49.4"/><path class="cls-1" d="M226.5,49.14h6.17l28,45.93h-9.12l-8.28-13.55H216.7l-7.79,13.55H199.8l26.7-45.93Zm13.17,26.55L229.54,59.17,220.2,75.69Z"/><path class="cls-3" d="M273,95.07V49.4H294q12.66,0,20,2.81a26.89,26.89,0,0,1,11.73,8.23,18.56,18.56,0,0,1,4.35,11.84,17.43,17.43,0,0,1-2.4,8.78,23.42,23.42,0,0,1-6.84,7.36,32.8,32.8,0,0,1-10.53,4.94,41.32,41.32,0,0,1-6.44,1.37c-1.95.22-5.69.34-11.2.34Zm20-39.84H282v34h11.35a60.68,60.68,0,0,0,10.33-.67,30.06,30.06,0,0,0,6.14-1.71,20.6,20.6,0,0,0,4.5-2.54q6.57-4.89,6.56-12.4t-6.74-12a22.76,22.76,0,0,0-5.69-2.84,29.79,29.79,0,0,0-6.1-1.48,83.67,83.67,0,0,0-9.26-.36Z"/><polygon class="cls-3" points="348.58 49.4 383.81 49.4 383.81 55.23 357.52 55.23 357.52 69.19 382.86 69.19 382.86 75.01 357.52 75.01 357.52 89.24 384.62 89.24 384.62 95.07 348.58 95.07 348.58 49.4 348.58 49.4"/><path class="cls-3" d="M416.67,75.92l-6.73-3c-4.21-1.87-7.22-3.73-9-5.6A8.94,8.94,0,0,1,398.26,61q0-5.45,5.08-8.83t13.2-3.39a32.14,32.14,0,0,1,14.24,3.15v7.45a24.47,24.47,0,0,0-14.44-4.77,15,15,0,0,0-7.15,1.5q-2.81,1.52-2.8,3.86a5.24,5.24,0,0,0,2,3.91A25.1,25.1,0,0,0,415,67.61l6.8,2.94q11.39,5,11.39,12.75a10.53,10.53,0,0,1-5,9q-5,3.45-13,3.46a33.6,33.6,0,0,1-16.72-4.24V83.24a23.37,23.37,0,0,0,16.59,6.81,12.71,12.71,0,0,0,6.93-1.75,5.17,5.17,0,0,0,2.77-4.4c0-2.87-2.72-5.52-8.15-8Z"/></g></g></svg>