<?xml version="1.0" encoding="utf-8"?>
<!-- Generator: Adobe Illustrator 23.0.2, SVG Export Plug-In . SVG Version: 6.00 Build 0)  -->
<svg version="1.1" id="Layer_1" xmlns="http://www.w3.org/2000/svg" xmlns:xlink="http://www.w3.org/1999/xlink" x="0px" y="0px"
	 viewBox="0 0 412.7 370.5" style="enable-background:new 0 0 412.7 370.5;" xml:space="preserve">
<style type="text/css">
	.st0{fill:#F79A0F;}
	.st1{fill:#A21C13;}
	.st2{fill:#A21C13;}
</style>
<title>symbol</title>
<g>
	<g id="Layer_1-2">
		<polygon class="st0" points="375.3,67.5 348.9,23.9 187.8,227.6 26.3,23.6 0,67.1 155.9,264.6 155.8,264.7 187.7,301.7 
			187.8,301.6 187.9,301.7 219.8,264.7 219.8,264.6 		"/>
		<path class="st0" d="M219.1,31.7c0-17.5-14.2-31.7-31.7-31.6s-31.7,14.2-31.6,31.7c0,17.5,14.2,31.6,31.6,31.6
			C205,63.3,219.1,49.2,219.1,31.7L219.1,31.7z"/>
		<polygon class="st1" points="315.7,328.9 106.4,328.9 73,370.2 412.7,369.9 273.5,196.5 242.4,235.9 		"/>
		<polygon class="st1" points="219.8,129.5 219.8,129.4 187.9,92.4 187.8,92.5 187.7,92.4 155.8,129.4 155.9,129.5 0,327 
			26.3,370.5 187.8,166.5 211.9,197.1 242.8,158.1 		"/>
		<polygon class="st1" points="315.7,328.9 106.4,328.9 73,370.2 412.7,369.9 273.5,196.5 242.4,235.9 		"/>
		<polygon class="st1" points="219.8,129.5 219.8,129.4 187.9,92.4 187.8,92.5 187.7,92.4 155.8,129.4 155.9,129.5 0,327 
			26.3,370.5 187.8,166.5 211.9,197.1 242.8,158.1 		"/>
		<polygon class="st2" points="315.7,328.9 106.4,328.9 73,370.2 412.7,369.9 273.5,196.5 242.4,235.9 		"/>
		<polygon class="st2" points="219.8,129.5 219.8,129.4 187.9,92.4 187.8,92.5 187.7,92.4 155.8,129.4 155.9,129.5 0,327 
			26.3,370.5 187.8,166.5 211.9,197.1 242.8,158.1 		"/>
		<polygon class="st1" points="315.7,328.9 106.4,328.9 73,370.2 412.7,369.9 273.5,196.5 242.4,235.9 		"/>
		<polygon class="st1" points="219.8,129.5 219.8,129.4 187.9,92.4 187.8,92.5 187.7,92.4 155.8,129.4 155.9,129.5 0,327 
			26.3,370.5 187.8,166.5 211.9,197.1 242.8,158.1 		"/>
	</g>
</g>
</svg>
